<svg width="479" height="479" viewBox="0 0 479 479" fill="none" xmlns="http://www.w3.org/2000/svg">
<path opacity="0.7" d="M457.809 224.927C452.922 266.311 434.027 314.429 396.287 336.534C339.266 369.939 344.04 421.318 232.741 443.654C215.389 447.139 198.921 448.605 183.393 448.315C175.046 448.161 166.965 447.487 159.172 446.341C88.4347 436.008 40.8317 386.838 23.3674 327.485C0.384943 249.426 46.2751 198.322 76.6925 167.532C107.11 136.742 129.388 40.8038 238.629 17.9862C255.286 14.5144 272.319 12.743 289.347 13.1674C328.214 14.1216 370.609 26.8841 399.944 53.5222C402.146 55.5235 404.288 57.5995 406.377 59.7377C447.149 101.587 464.475 168.506 457.809 224.927Z" fill="#F5B16A"/>
<path d="M330.785 442.598H464.127" stroke="#263238" stroke-miterlimit="10" stroke-linecap="round" stroke-linejoin="round"/>
<path d="M23.7651 442.598H322.055" stroke="#263238" stroke-miterlimit="10" stroke-linecap="round" stroke-linejoin="round"/>
<path d="M31.5977 244.886C31.5977 244.886 28.3108 253.926 21.326 255.158C14.3412 256.391 2.01464 242.832 9.82138 235.847C17.6281 228.863 28.3108 239.956 31.5977 244.886Z" fill="#F9850A" stroke="#263238" stroke-miterlimit="10" stroke-linecap="round" stroke-linejoin="round"/>
<path d="M42.2805 200.513C42.2805 200.513 32.0088 225.576 36.1176 237.903C40.2265 250.229 65.7007 259.268 73.0964 243.244C80.4922 227.22 64.0568 204.623 57.8939 199.692C51.7302 194.76 44.3344 196.404 42.2805 200.513Z" fill="#F9850A" stroke="#263238" stroke-miterlimit="10" stroke-linecap="round" stroke-linejoin="round"/>
<path d="M102.268 211.195C102.268 211.195 84.6008 227.22 82.5459 243.243C80.491 259.268 92.4066 265.019 104.733 262.966C117.06 260.911 123.223 229.685 119.525 215.304C115.827 200.923 102.268 211.195 102.268 211.195Z" fill="#F9850A" stroke="#263238" stroke-miterlimit="10" stroke-linecap="round" stroke-linejoin="round"/>
<path d="M105.555 299.943C105.555 299.943 85.8329 300.765 85.0119 310.215C84.19 319.666 93.6406 321.72 103.09 313.502C112.54 305.284 113.772 300.353 105.555 299.943Z" fill="#F9850A" stroke="#263238" stroke-miterlimit="10" stroke-linecap="round" stroke-linejoin="round"/>
<path d="M85.3374 312.467C85.3374 312.467 100.881 305.356 107.88 304.121" stroke="#263238" stroke-miterlimit="10"/>
<path d="M109.952 361.779C109.952 361.779 95.4648 348.371 88.184 354.451C80.9022 360.53 86.108 368.681 98.5974 369.589C111.088 370.499 115.453 367.897 109.952 361.779Z" fill="#F9850A" stroke="#263238" stroke-miterlimit="10" stroke-linecap="round" stroke-linejoin="round"/>
<path d="M86.8159 356.27C86.8159 356.27 102.816 362.28 108.628 366.374" stroke="#263238" stroke-miterlimit="10"/>
<path d="M33.5357 357.831C33.5357 357.831 53.5052 339.348 63.5431 347.729C73.581 356.11 66.4056 367.345 49.1875 368.597C31.9703 369.851 25.9512 366.264 33.5357 357.831Z" fill="#F9850A" stroke="#263238" stroke-miterlimit="10" stroke-linecap="round" stroke-linejoin="round"/>
<path d="M65.4277 350.236C65.4277 350.236 43.3707 358.521 35.3608 364.164" stroke="#263238" stroke-miterlimit="10"/>
<path d="M56.6607 319.665C56.6607 319.665 54.6067 329.526 47.211 333.224C39.8152 336.922 26.6667 329.115 33.6524 317.199C40.6362 305.285 52.9628 314.735 56.6607 319.665Z" fill="#F9850A" stroke="#263238" stroke-miterlimit="10" stroke-linecap="round" stroke-linejoin="round"/>
<path d="M39.4044 288.851C39.4044 288.851 35.7065 280.633 21.326 285.975C6.94544 291.316 1.19264 299.533 10.2323 302.409C19.2711 305.285 39.4044 288.851 39.4044 288.851Z" fill="#F9850A" stroke="#263238" stroke-miterlimit="10" stroke-linecap="round" stroke-linejoin="round"/>
<path d="M36.6502 288.477C36.6502 288.477 21.4161 290.123 13.1812 297.123" stroke="#263238" stroke-miterlimit="10"/>
<path d="M80.4922 190.24C80.4922 190.24 82.9571 195.991 87.8879 194.759C92.8178 193.527 94.0508 186.131 101.857 188.186C109.664 190.241 116.238 199.279 116.238 195.17C116.238 191.062 106.377 180.379 95.2837 180.379C84.1901 180.379 80.9022 184.899 80.4922 190.24Z" fill="#F9850A" stroke="#263238" stroke-miterlimit="10" stroke-linecap="round" stroke-linejoin="round"/>
<path d="M39.4043 288.851C39.4043 288.851 57.0966 285.455 64.4637 305.102C65.187 307.029 65.7972 309.046 66.3107 311.114" stroke="#263238" stroke-miterlimit="10"/>
<path d="M113.24 269.817C113.24 269.817 116.938 261.6 131.319 266.941C145.699 272.283 151.451 280.501 142.412 283.376C133.374 286.252 113.24 269.817 113.24 269.817Z" fill="#F9850A" stroke="#263238" stroke-miterlimit="10" stroke-linecap="round" stroke-linejoin="round"/>
<path d="M116.526 270.359C116.526 270.359 131.349 269.535 138.348 278.182" stroke="#263238" stroke-miterlimit="10"/>
<path d="M113.24 269.818C113.24 269.818 107.375 268.692 100.993 271.487" stroke="#263238" stroke-miterlimit="10"/>
<path d="M48.8349 255.078C40.1631 246.223 31.5966 244.887 31.5966 244.887C31.5966 244.887 18.9453 241.539 14.0049 246.068" stroke="#263238" stroke-miterlimit="10"/>
<path d="M50.595 209.563L49.8267 206.129" stroke="#263238" stroke-miterlimit="10"/>
<path d="M70.6027 391.206C70.6027 391.206 72.4449 320.448 70.6027 298.96C68.7605 277.472 60.1653 252.3 60.1653 252.3L51.4092 213.201" stroke="#263238" stroke-miterlimit="10"/>
<path d="M107.121 224.756L108.703 221.363" stroke="#263238" stroke-miterlimit="10"/>
<path d="M74.9004 391.128C74.9004 391.128 75.5145 326.588 77.9708 308.169C80.4261 289.751 90.2495 260.895 90.2495 260.895L105.325 228.602" stroke="#263238" stroke-miterlimit="10"/>
<path d="M85.3379 312.469C85.3379 312.469 81.0403 349.471 78.585 391.219" stroke="#263238" stroke-miterlimit="10"/>
<path d="M64.4639 391.128C64.4639 391.128 65.692 332.113 63.2357 324.132C60.7804 316.151 56.661 319.665 56.661 319.665C56.661 319.665 45.2972 321.001 41.1797 327.59" stroke="#263238" stroke-miterlimit="10"/>
<path d="M67.2842 315.709C70.4964 333.707 67.5333 391.189 67.5333 391.189" stroke="#263238" stroke-miterlimit="10"/>
<path d="M97.5132 273.416C93.9571 275.85 90.5399 279.778 88.1813 286.067C80.8143 305.714 81.6545 391.217 81.6545 391.217" stroke="#263238" stroke-miterlimit="10"/>
<path d="M50.9731 257.42C54.8109 261.926 58.5327 268.02 61.3933 276.244C71.2166 304.486 74.9002 377.621 73.0589 391.128" stroke="#263238" stroke-miterlimit="10"/>
<path d="M75.9216 283.85C75.3238 319.493 74.9004 391.128 74.9004 391.128" stroke="#263238" stroke-miterlimit="10"/>
<path d="M75.9971 279.414C76.4023 255.845 76.8794 232.78 77.3565 220.374C78.5846 188.448 80.492 190.239 80.492 190.239C80.492 190.239 82.7653 183.071 95.5288 183.894" stroke="#263238" stroke-miterlimit="10"/>
<path d="M60.2746 306.331C60.2746 306.331 50.0029 297.17 54.1118 292.666C58.2206 288.161 83.6948 284.857 91.0906 290.713C98.4863 296.569 82.0509 304.828 75.8881 306.63C69.7243 308.433 62.3285 307.833 60.2746 306.331Z" fill="#F9850A" stroke="#263238" stroke-miterlimit="10" stroke-linecap="round" stroke-linejoin="round"/>
<path d="M69.7607 298.83C69.617 299.757 69.5327 300.679 69.5327 301.565" stroke="#263238" stroke-miterlimit="10"/>
<path d="M73.2917 288.137C73.2917 288.137 71.7637 291.194 70.6553 294.94" stroke="#263238" stroke-miterlimit="10"/>
<path d="M60.2746 366.221C60.2746 366.221 50.0029 357.061 54.1118 352.556C58.2206 348.052 83.6948 344.748 91.0906 350.604C98.4863 356.46 82.0509 364.719 75.8881 366.521C69.7243 368.323 62.3285 367.723 60.2746 366.221Z" fill="#F9850A" stroke="#263238" stroke-miterlimit="10" stroke-linecap="round" stroke-linejoin="round"/>
<path d="M73.2919 348.027C73.2919 348.027 69.5317 355.548 69.5317 361.456" stroke="#263238" stroke-miterlimit="10"/>
<path d="M67.9214 340.891C67.9214 340.891 60.9471 334.672 63.7368 331.613C66.5265 328.554 83.8222 326.312 88.8441 330.288C93.8659 334.265 82.7071 339.872 78.5226 341.095C74.3371 342.319 69.3162 341.911 67.9214 340.891Z" fill="#F9850A" stroke="#263238" stroke-miterlimit="10" stroke-linecap="round" stroke-linejoin="round"/>
<path d="M76.7596 328.539C76.7596 328.539 74.2065 333.645 74.2065 337.656" stroke="#263238" stroke-miterlimit="10"/>
<path d="M86.0789 380.941H58.2729V442.597H86.0789V380.941Z" fill="white" stroke="#263238" stroke-miterlimit="10" stroke-linecap="round" stroke-linejoin="round"/>
<path d="M238.568 290.314H119.302C117.475 290.314 115.994 288.833 115.994 287.006V221.394C115.994 220.305 116.877 219.422 117.966 219.422H239.903C240.993 219.422 241.876 220.305 241.876 221.394V287.006C241.876 288.833 240.395 290.314 238.568 290.314Z" fill="#263238" stroke="#263238" stroke-miterlimit="10" stroke-linecap="round" stroke-linejoin="round"/>
<path d="M241.876 230.987H115.995V221.396C115.995 220.307 116.878 219.424 117.968 219.424H239.905C240.994 219.424 241.877 220.307 241.877 221.396V230.987H241.876Z" fill="#263238" stroke="#263238" stroke-miterlimit="10" stroke-linecap="round" stroke-linejoin="round"/>
<path d="M216.104 227.936C217.518 227.936 218.664 226.789 218.664 225.375C218.664 223.961 217.518 222.814 216.104 222.814C214.689 222.814 213.543 223.961 213.543 225.375C213.543 226.789 214.689 227.936 216.104 227.936Z" fill="#263238" stroke="#263238" stroke-miterlimit="10" stroke-linecap="round" stroke-linejoin="round"/>
<path d="M224.213 227.936C225.627 227.936 226.774 226.789 226.774 225.375C226.774 223.961 225.627 222.814 224.213 222.814C222.799 222.814 221.652 223.961 221.652 225.375C221.652 226.789 222.799 227.936 224.213 227.936Z" fill="#263238" stroke="#263238" stroke-miterlimit="10" stroke-linecap="round" stroke-linejoin="round"/>
<path d="M232.322 227.936C233.737 227.936 234.883 226.789 234.883 225.375C234.883 223.961 233.737 222.814 232.322 222.814C230.908 222.814 229.762 223.961 229.762 225.375C229.762 226.789 230.908 227.936 232.322 227.936Z" fill="#263238" stroke="#263238" stroke-miterlimit="10" stroke-linecap="round" stroke-linejoin="round"/>
<path d="M155.347 242.035H129.498V266.736H155.347V242.035Z" fill="#263238" stroke="#263238" stroke-miterlimit="10"/>
<path d="M163.963 244.908H231.748" stroke="#263238" stroke-miterlimit="10"/>
<path d="M163.963 252.949H231.748" stroke="#263238" stroke-miterlimit="10"/>
<path d="M163.963 260.992H231.748" stroke="#263238" stroke-miterlimit="10"/>
<path d="M163.963 269.033H231.748" stroke="#263238" stroke-miterlimit="10"/>
<path d="M235.533 285.763H116.267C114.441 285.763 112.959 284.282 112.959 282.455V216.844C112.959 215.754 113.843 214.871 114.932 214.871H236.869C237.958 214.871 238.842 215.754 238.842 216.844V282.455C238.842 284.282 237.36 285.763 235.533 285.763Z" fill="white" stroke="#263238" stroke-miterlimit="10" stroke-linecap="round" stroke-linejoin="round"/>
<path d="M238.842 226.436H112.961V216.846C112.961 215.756 113.844 214.873 114.933 214.873H236.871C237.96 214.873 238.843 215.756 238.843 216.846V226.436H238.842Z" fill="#F9850A" stroke="#263238" stroke-miterlimit="10" stroke-linecap="round" stroke-linejoin="round"/>
<path d="M213.069 223.387C214.483 223.387 215.629 222.241 215.629 220.826C215.629 219.412 214.483 218.266 213.069 218.266C211.654 218.266 210.508 219.412 210.508 220.826C210.508 222.241 211.654 223.387 213.069 223.387Z" fill="white" stroke="#263238" stroke-miterlimit="10" stroke-linecap="round" stroke-linejoin="round"/>
<path d="M221.179 223.387C222.593 223.387 223.74 222.241 223.74 220.826C223.74 219.412 222.593 218.266 221.179 218.266C219.765 218.266 218.618 219.412 218.618 220.826C218.618 222.241 219.765 223.387 221.179 223.387Z" fill="white" stroke="#263238" stroke-miterlimit="10" stroke-linecap="round" stroke-linejoin="round"/>
<path d="M229.288 223.387C230.703 223.387 231.849 222.241 231.849 220.826C231.849 219.412 230.703 218.266 229.288 218.266C227.874 218.266 226.728 219.412 226.728 220.826C226.728 222.241 227.874 223.387 229.288 223.387Z" fill="white" stroke="#263238" stroke-miterlimit="10" stroke-linecap="round" stroke-linejoin="round"/>
<path d="M152.313 237.484H126.463V262.185H152.313V237.484Z" stroke="#263238" stroke-miterlimit="10"/>
<path d="M160.929 240.357H228.713" stroke="#263238" stroke-miterlimit="10"/>
<path d="M160.929 248.398H228.713" stroke="#263238" stroke-miterlimit="10"/>
<path d="M160.929 256.441H228.713" stroke="#263238" stroke-miterlimit="10"/>
<path d="M160.929 264.482H228.713" stroke="#263238" stroke-miterlimit="10"/>
<path d="M349.495 251.457H262.243C259.93 251.457 258.054 249.582 258.054 247.269V171.576C258.054 169.263 259.929 167.389 262.243 167.389H349.495C351.807 167.389 353.683 169.263 353.683 171.576V247.269C353.682 249.582 351.807 251.457 349.495 251.457Z" fill="#263238" stroke="#263238" stroke-miterlimit="10" stroke-linecap="round" stroke-linejoin="round"/>
<path d="M346.461 246.905H259.209C256.896 246.905 255.021 245.03 255.021 242.717V167.024C255.021 164.712 256.896 162.836 259.209 162.836H346.461C348.773 162.836 350.649 164.711 350.649 167.024V242.717C350.648 245.03 348.773 246.905 346.461 246.905Z" fill="white" stroke="#263238" stroke-miterlimit="10" stroke-linecap="round" stroke-linejoin="round"/>
<path d="M276.011 196.496H267.193V237.282H276.011V196.496Z" fill="#263238" stroke="#263238" stroke-miterlimit="10" stroke-linecap="round" stroke-linejoin="round"/>
<path d="M288.504 203.111H279.686V237.283H288.504V203.111Z" fill="#F9850A" stroke="#263238" stroke-miterlimit="10" stroke-linecap="round" stroke-linejoin="round"/>
<path d="M300.997 208.621H292.178V237.282H300.997V208.621Z" fill="white" stroke="#263238" stroke-miterlimit="10" stroke-linecap="round" stroke-linejoin="round"/>
<path d="M313.49 191.721H304.672V237.283H313.49V191.721Z" fill="#263238" stroke="#263238" stroke-miterlimit="10" stroke-linecap="round" stroke-linejoin="round"/>
<path d="M325.983 197.23H317.165V237.282H325.983V197.23Z" fill="#F9850A" stroke="#263238" stroke-miterlimit="10" stroke-linecap="round" stroke-linejoin="round"/>
<path d="M338.476 178.125H329.657V237.282H338.476V178.125Z" fill="white" stroke="#263238" stroke-miterlimit="10" stroke-linecap="round" stroke-linejoin="round"/>
<path d="M267.79 173.873H276.609" stroke="#263238" stroke-miterlimit="10"/>
<path d="M267.79 177.549H276.609" stroke="#263238" stroke-miterlimit="10"/>
<path d="M267.79 181.223H276.609" stroke="#263238" stroke-miterlimit="10"/>
<path d="M279.548 173.873H315.19" stroke="#263238" stroke-miterlimit="10"/>
<path d="M279.548 177.549H315.19" stroke="#263238" stroke-miterlimit="10"/>
<path d="M279.548 181.223H315.19" stroke="#263238" stroke-miterlimit="10"/>
<path d="M349.495 151.852H262.243C259.93 151.852 258.054 149.977 258.054 147.663V71.9706C258.054 69.658 259.929 67.7832 262.243 67.7832H349.495C351.807 67.7832 353.683 69.658 353.683 71.9706V147.663C353.682 149.977 351.807 151.852 349.495 151.852Z" fill="#263238" stroke="#263238" stroke-miterlimit="10" stroke-linecap="round" stroke-linejoin="round"/>
<path d="M346.461 147.302H259.209C256.896 147.302 255.021 145.427 255.021 143.113V67.4208C255.021 65.1082 256.896 63.2324 259.209 63.2324H346.461C348.773 63.2324 350.649 65.1072 350.649 67.4208V143.113C350.648 145.426 348.773 147.302 346.461 147.302Z" fill="white" stroke="#263238" stroke-miterlimit="10" stroke-linecap="round" stroke-linejoin="round"/>
<path d="M300.492 130.355C315.306 130.355 327.315 118.346 327.315 103.532C327.315 88.7181 315.306 76.709 300.492 76.709C285.678 76.709 273.669 88.7181 273.669 103.532C273.669 118.346 285.678 130.355 300.492 130.355Z" fill="white" stroke="#263238" stroke-miterlimit="10" stroke-linecap="round" stroke-linejoin="round"/>
<path d="M326.527 97.067C325.393 92.4858 323.039 88.1451 319.459 84.5651C308.984 74.0903 292 74.0903 281.525 84.5651L300.491 103.532L326.527 97.067Z" fill="#263238" stroke="#263238" stroke-miterlimit="10" stroke-linecap="round" stroke-linejoin="round"/>
<path d="M326.527 97.0684L300.492 103.533L292.747 129.216C301.898 131.967 312.228 129.729 319.459 122.499C326.354 115.605 328.709 105.891 326.527 97.0684Z" fill="#F9850A" stroke="#263238" stroke-miterlimit="10" stroke-linecap="round" stroke-linejoin="round"/>
<path d="M311.148 86.6309L319.966 75.2402H325.477" stroke="#263238" stroke-miterlimit="10"/>
<path d="M330.622 75.6074H339.44" stroke="#263238" stroke-miterlimit="10"/>
<path d="M330.622 79.2812H339.44" stroke="#263238" stroke-miterlimit="10"/>
<path d="M330.622 82.9551H339.44" stroke="#263238" stroke-miterlimit="10"/>
<path d="M330.622 123.375H339.44" stroke="#263238" stroke-miterlimit="10"/>
<path d="M330.622 127.049H339.44" stroke="#263238" stroke-miterlimit="10"/>
<path d="M330.622 130.725H339.44" stroke="#263238" stroke-miterlimit="10"/>
<path d="M262.278 122.641H271.097" stroke="#263238" stroke-miterlimit="10"/>
<path d="M262.278 126.314H271.097" stroke="#263238" stroke-miterlimit="10"/>
<path d="M262.278 129.99H271.097" stroke="#263238" stroke-miterlimit="10"/>
<path d="M285.427 121.537L282.12 129.989H273.302" stroke="#263238" stroke-miterlimit="10"/>
<path d="M321.069 111.25H335.766V116.027" stroke="#263238" stroke-miterlimit="10"/>
<path d="M234.766 152.167H147.515C145.202 152.167 143.326 150.292 143.326 147.979V72.286C143.326 69.9734 145.201 68.0977 147.515 68.0977H234.766C237.079 68.0977 238.955 69.9725 238.955 72.286V147.979C238.954 150.292 237.079 152.167 234.766 152.167Z" fill="#263238" stroke="#263238" stroke-miterlimit="10" stroke-linecap="round" stroke-linejoin="round"/>
<path d="M230.712 147.304H143.46C141.148 147.304 139.272 145.429 139.272 143.115V67.4228C139.272 65.1101 141.147 63.2344 143.46 63.2344H230.712C233.025 63.2344 234.9 65.1092 234.9 67.4228V143.115C234.9 145.428 233.026 147.304 230.712 147.304Z" fill="white" stroke="#263238" stroke-miterlimit="10" stroke-linecap="round" stroke-linejoin="round"/>
<path d="M149.197 131.387V134.632" stroke="#263238" stroke-miterlimit="10"/>
<path d="M156.985 131.387V134.632" stroke="#263238" stroke-miterlimit="10"/>
<path d="M164.774 131.387V134.632" stroke="#263238" stroke-miterlimit="10"/>
<path d="M172.562 131.387V134.632" stroke="#263238" stroke-miterlimit="10"/>
<path d="M180.35 131.387V134.632" stroke="#263238" stroke-miterlimit="10"/>
<path d="M188.139 131.387V134.632" stroke="#263238" stroke-miterlimit="10"/>
<path d="M195.927 131.387V134.632" stroke="#263238" stroke-miterlimit="10"/>
<path d="M203.715 131.387V134.632" stroke="#263238" stroke-miterlimit="10"/>
<path d="M211.503 131.387V134.632" stroke="#263238" stroke-miterlimit="10"/>
<path d="M219.292 131.387V134.632" stroke="#263238" stroke-miterlimit="10"/>
<path d="M227.079 131.387V134.632" stroke="#263238" stroke-miterlimit="10"/>
<path d="M223.835 85.9565L215.397 90.5003L208.582 76.8708L199.82 88.2279L192.033 81.4137L184.569 72.9766L176.78 82.0622L168.993 104.129L160.555 96.0165L152.118 102.182V122.626H223.835V85.9565Z" fill="#F9850A" stroke="#263238" stroke-miterlimit="10" stroke-linecap="round" stroke-linejoin="round"/>
<path d="M152.312 72.793H161.13" stroke="#263238" stroke-miterlimit="10"/>
<path d="M152.312 76.4688H161.13" stroke="#263238" stroke-miterlimit="10"/>
<path d="M152.312 80.1426H161.13" stroke="#263238" stroke-miterlimit="10"/>
<path d="M223.835 103.925L215.397 107.05L208.582 91.8906L199.82 102.507L192.033 99.911L184.569 116.137L176.78 94.3939L168.993 116.137L160.555 108.023L152.118 118.733V126.52H223.835V103.925Z" fill="#263238" stroke="#263238" stroke-miterlimit="10" stroke-linecap="round" stroke-linejoin="round"/>
<path d="M347.39 338.174H259.982C257.665 338.174 255.786 336.615 255.786 334.69V271.724C255.786 269.801 257.664 268.24 259.982 268.24H347.39C349.707 268.24 351.586 269.8 351.586 271.724V334.69C351.585 336.615 349.707 338.174 347.39 338.174Z" fill="#263238" stroke="#263238" stroke-miterlimit="10" stroke-linecap="round" stroke-linejoin="round"/>
<path d="M343.558 334.342H256.15C253.833 334.342 251.954 332.783 251.954 330.858V267.892C251.954 265.969 253.832 264.408 256.15 264.408H343.558C345.875 264.408 347.754 265.968 347.754 267.892V330.858C347.754 332.782 345.876 334.342 343.558 334.342Z" fill="white" stroke="#263238" stroke-miterlimit="10" stroke-linecap="round" stroke-linejoin="round"/>
<path d="M336.258 287.013L327.805 291.572L320.978 277.896L312.199 289.292L304.397 282.455L297.938 289.292L289.117 283.105L281.315 305.246L272.861 297.106L264.408 303.293V323.805H336.258V287.013Z" fill="#F9850A"/>
<path d="M336.258 299.748L327.805 302.729L320.978 293.787L312.199 301.238L304.397 296.768L296.92 291.232L289.117 297.193L281.315 311.67L272.861 306.348L264.408 310.392V323.804H336.258V299.748Z" fill="white" fill-opacity="0.41"/>
<path d="M395.657 109.73C395.657 109.73 392.475 101.322 383.386 102.231C374.296 103.14 370.206 110.411 371.796 115.184C373.386 119.956 374.295 121.547 374.295 121.547C374.295 121.547 371.341 120.184 372.25 124.956C373.159 129.727 379.976 128.819 381.113 128.364C382.25 127.91 387.249 115.184 395.657 109.73Z" fill="#263238" stroke="#263238" stroke-miterlimit="10" stroke-linecap="round" stroke-linejoin="round"/>
<path d="M337.774 191.279L321.642 199.346C320.356 199.988 320.312 201.807 321.565 202.511L364.609 226.722C365.353 227.141 366.29 226.976 366.847 226.329L376.954 214.568C377.694 213.707 377.457 212.383 376.463 211.832L339.446 191.314C338.928 191.028 338.302 191.015 337.774 191.279Z" fill="#263238" stroke="#263238" stroke-miterlimit="10" stroke-linecap="round" stroke-linejoin="round"/>
<path d="M377.113 205.812L370.324 201.41C370.324 201.41 365.241 195.712 363.328 194.745C361.415 193.778 348.618 196.083 348.618 196.083L376.764 212.005L377.113 205.812Z" fill="white" stroke="#263238" stroke-miterlimit="10" stroke-linecap="round" stroke-linejoin="round"/>
<path d="M363.246 198.858C363.246 198.858 358.246 199.085 355.16 197.768C352.074 196.452 350.305 197.069 351.91 199.661C353.515 202.254 358.514 202.026 358.514 202.026C358.514 202.026 362.876 207.335 368.163 205.256" fill="white"/>
<path d="M363.246 198.858C363.246 198.858 358.246 199.085 355.16 197.768C352.074 196.452 350.305 197.069 351.91 199.661C353.515 202.254 358.514 202.026 358.514 202.026C358.514 202.026 362.876 207.335 368.163 205.256" stroke="#263238" stroke-miterlimit="10" stroke-linecap="round" stroke-linejoin="round"/>
<path d="M432.059 427.679C432.059 427.679 434.91 438.608 434.672 440.509C434.435 442.41 428.494 444.073 425.168 444.073C421.842 444.073 415.188 445.261 415.188 445.261L415.426 427.678L432.059 427.679Z" fill="white" stroke="#263238" stroke-miterlimit="10" stroke-linecap="round" stroke-linejoin="round"/>
<path d="M434.672 440.509C434.733 440.03 434.596 438.978 434.358 437.672C432.395 438.715 429.703 439.995 427.069 440.747C423.028 441.901 417.276 441.966 415.233 441.947L415.188 445.261C415.188 445.261 421.842 444.073 425.168 444.073C428.495 444.073 434.435 442.41 434.672 440.509Z" fill="white" stroke="#263238" stroke-miterlimit="10" stroke-linecap="round" stroke-linejoin="round"/>
<path d="M411.862 322.658C411.862 322.658 414.951 348.557 416.139 353.547C417.327 358.536 423.267 367.09 425.643 380.396C428.019 393.702 432.534 424.59 432.534 425.303C432.534 426.016 433.009 428.154 433.247 429.58C433.247 429.58 428.02 431.718 424.218 431.243C420.416 430.768 417.089 429.817 417.089 429.817C417.089 429.817 418.752 419.6 415.189 401.305C411.625 383.01 408.06 364.002 405.922 350.696C403.784 337.39 411.862 322.658 411.862 322.658Z" fill="#999999" stroke="#263238" stroke-miterlimit="10" stroke-linecap="round" stroke-linejoin="round"/>
<path d="M399.745 424.828C399.745 424.828 398.319 427.204 394.28 430.769C390.241 434.332 382.638 438.135 380.499 439.085C378.361 440.035 376.698 440.035 377.173 442.174C377.648 444.312 381.212 445.975 391.904 445.975C402.597 445.975 414.002 445.5 415.189 445.262C416.377 445.025 419.941 445.025 419.941 442.411C419.941 439.798 418.753 429.343 418.753 429.343L399.745 424.828Z" fill="white" stroke="#263238" stroke-miterlimit="10" stroke-linecap="round" stroke-linejoin="round"/>
<path d="M415.189 445.262C416.377 445.025 419.941 445.025 419.941 442.411C419.941 442.027 419.915 441.471 419.871 440.807C415.804 441.337 406.584 442.48 396.181 443.363C387.023 444.139 380.522 442.586 377.101 441.413C377.09 441.634 377.107 441.881 377.172 442.175C377.647 444.313 381.211 445.976 391.903 445.976C402.596 445.974 414.001 445.499 415.189 445.262Z" fill="white" stroke="#263238" stroke-miterlimit="10" stroke-linecap="round" stroke-linejoin="round"/>
<path d="M374.559 268.011C374.559 268.011 374.321 286.782 376.935 307.928C379.548 329.074 387.152 354.735 387.152 354.735C387.152 354.735 390.953 375.407 392.141 382.535C393.329 389.663 399.507 417.7 399.507 417.7L396.894 421.264L397.369 427.441C397.369 427.441 399.507 427.916 406.873 429.579C414.239 431.242 418.753 431.005 418.753 431.005C418.753 431.005 419.228 418.649 418.991 416.986C418.753 415.323 417.328 407.482 417.09 404.869C416.853 402.255 417.565 373.267 415.902 366.615C414.239 359.961 411.388 350.22 411.388 341.666C411.388 333.112 417.804 291.295 417.804 291.295C417.804 291.295 424.695 281.553 424.695 275.851C424.695 270.148 423.982 267.297 423.982 267.297L374.559 268.011Z" fill="#BDBDBD" stroke="#263238" stroke-miterlimit="10" stroke-linecap="round" stroke-linejoin="round"/>
<path d="M408.245 409.65C408.775 414.9 409.008 418.394 409.008 418.394C409.008 418.394 407.481 419.158 408.244 421.83C409.008 424.503 409.39 426.413 409.39 426.413" stroke="#263238" stroke-width="0.75" stroke-miterlimit="10" stroke-linecap="round" stroke-linejoin="round"/>
<path d="M392.895 295.039C392.306 304.518 392.186 317.446 394.116 330.958C397.935 357.686 404.425 381.74 406.335 394.34C406.909 398.134 407.381 401.824 407.758 405.13" stroke="#263238" stroke-width="0.75" stroke-miterlimit="10" stroke-linecap="round" stroke-linejoin="round"/>
<path d="M394.499 279.795C394.499 279.795 393.776 283.998 393.203 290.822" stroke="#263238" stroke-width="0.75" stroke-miterlimit="10" stroke-linecap="round" stroke-linejoin="round"/>
<path d="M420.427 117.456C420.427 117.456 423.381 105.639 441.106 107.002C458.831 108.365 458.604 124.5 458.604 124.5L454.741 122.682C454.741 122.682 457.922 131.999 454.287 138.816C450.651 145.633 441.333 149.497 435.197 148.361C429.061 147.225 422.471 141.544 421.562 138.362C420.654 135.182 424.063 124.046 420.427 117.456Z" fill="#263238" stroke="#263238" stroke-miterlimit="10" stroke-linecap="round" stroke-linejoin="round"/>
<path d="M385.204 116.093C385.204 116.093 383.841 118.365 381.113 123.138C378.387 127.91 379.523 132.228 377.705 134.5C375.887 136.772 370.888 136.545 371.569 138.818C372.251 141.09 375.205 142.681 375.205 142.681C375.205 142.681 375.205 155.407 376.568 156.998C377.931 158.588 388.385 155.862 388.385 155.862C388.385 155.862 390.43 159.043 389.067 166.087C387.704 173.132 375.433 192.675 373.841 202.446C372.251 212.218 377.704 236.533 377.704 236.533L372.477 271.983C372.477 271.983 385.657 276.982 401.337 275.618C417.016 274.255 426.561 271.073 426.561 271.073L416.107 229.942C416.107 229.942 417.016 200.854 414.971 184.72C412.926 168.586 407.699 164.723 407.699 158.814C407.699 152.906 415.198 149.725 419.97 144.043C422.143 141.456 427.923 131.544 422.242 119.273C418.519 111.23 406.563 108.138 398.381 107.911C390.203 107.685 385.204 116.093 385.204 116.093Z" fill="white" stroke="#263238" stroke-miterlimit="10" stroke-linecap="round" stroke-linejoin="round"/>
<path d="M388.386 155.859L393.368 154.742L390.262 160.954C390.262 160.954 389.615 157.753 388.386 155.859Z" fill="#263238" stroke="#263238" stroke-miterlimit="10" stroke-linecap="round" stroke-linejoin="round"/>
<path d="M426.563 271.073L416.109 229.941C416.109 229.941 417.018 200.854 414.973 184.72C414.429 180.428 413.66 177.011 412.823 174.187C409.481 171.583 404.321 168.307 399.065 167.903C392.965 167.434 386.865 174.501 383.655 178.953C379.658 187.077 374.802 196.543 373.841 202.445C372.251 212.216 377.705 236.531 377.705 236.531L372.478 271.981C372.478 271.981 385.658 276.981 401.338 275.617C417.018 274.255 426.563 271.073 426.563 271.073Z" fill="#F9850A" stroke="#263238" stroke-miterlimit="10" stroke-linecap="round" stroke-linejoin="round"/>
<path d="M398.384 107.913C390.204 107.686 385.204 116.093 385.204 116.093C385.204 116.093 384.491 117.281 383.074 119.729C384.492 118.045 389.648 112.513 391.794 118.365C393.046 121.779 389.976 126.547 391.567 128.137C393.158 129.727 396.339 133.364 395.885 134.045C395.431 134.727 395.203 136.317 395.203 136.317C395.203 136.317 399.293 130.409 402.475 134.045C405.656 137.681 401.339 144.499 401.339 144.499L398.612 145.408C398.612 145.408 407.475 155.407 409.065 155.407C409.503 155.407 410.652 151.993 412.701 151.316C415.054 149.086 417.031 147.546 419.973 144.044C422.146 141.457 427.926 131.546 422.245 119.274C418.521 111.232 406.565 108.14 398.384 107.913Z" fill="#263238" stroke="#263238" stroke-miterlimit="10" stroke-linecap="round" stroke-linejoin="round"/>
<path d="M382.912 133.894C382.663 135.06 382.062 135.92 381.571 135.815C381.081 135.709 380.885 134.679 381.134 133.513C381.383 132.348 381.983 131.487 382.474 131.593C382.964 131.698 383.161 132.728 382.912 133.894Z" fill="#263238"/>
<path d="M381.114 128.364C381.114 128.364 383.613 125.638 385.204 129.047" stroke="#263238" stroke-miterlimit="10" stroke-linecap="round" stroke-linejoin="round"/>
<path d="M377.023 145.408C377.023 145.408 377.477 146.317 379.977 145.408" stroke="#263238" stroke-miterlimit="10" stroke-linecap="round" stroke-linejoin="round"/>
<path d="M392.021 180.176C392.021 180.176 388.613 184.948 387.249 193.81C385.886 202.672 387.022 231.532 387.022 231.532C387.022 231.532 367.706 226.078 361.343 222.897C354.98 219.715 352.935 218.352 352.935 218.352C352.935 218.352 350.889 213.58 349.299 211.762C347.708 209.944 343.391 209.49 341.8 208.353C340.21 207.217 339.073 203.582 337.028 204.945C334.983 206.308 335.892 208.126 336.801 208.808C337.71 209.491 341.119 212.899 341.119 212.899L332.483 209.036C332.483 209.036 331.801 212.444 332.937 213.58C334.074 214.716 336.346 216.762 336.346 216.762C336.346 216.762 339.755 221.534 341.8 222.67C343.845 223.806 347.481 224.715 348.163 224.942C350.201 225.622 352.247 227.357 354.066 228.462C357.929 230.809 361.785 233.167 365.653 235.504C371.51 239.043 378.019 242.111 384.596 244.422C388.733 245.876 398.86 250.321 402.454 245.865C404.004 243.935 403.53 238.229 403.933 235.809C406.472 220.569 409.747 205.232 409.747 189.718" fill="#F9850A"/>
<path d="M392.021 180.176C392.021 180.176 388.613 184.948 387.249 193.81C385.886 202.672 387.022 231.532 387.022 231.532C387.022 231.532 367.706 226.078 361.343 222.897C354.98 219.715 352.935 218.352 352.935 218.352C352.935 218.352 350.889 213.58 349.299 211.762C347.708 209.944 343.391 209.49 341.8 208.353C340.21 207.217 339.073 203.582 337.028 204.945C334.983 206.308 335.892 208.126 336.801 208.808C337.71 209.491 341.119 212.899 341.119 212.899L332.483 209.036C332.483 209.036 331.801 212.444 332.937 213.58C334.074 214.716 336.346 216.762 336.346 216.762C336.346 216.762 339.755 221.534 341.8 222.67C343.845 223.806 347.481 224.715 348.163 224.942C350.201 225.622 352.247 227.357 354.066 228.462C357.929 230.809 361.785 233.167 365.653 235.504C371.51 239.043 378.019 242.111 384.596 244.422C388.733 245.876 398.86 250.321 402.454 245.865C404.004 243.935 403.53 238.229 403.933 235.809C406.472 220.569 409.747 205.232 409.747 189.718" stroke="#263238" stroke-miterlimit="10" stroke-linecap="round" stroke-linejoin="round"/>
<path d="M380.134 229.506C373.937 227.629 365.229 224.841 361.343 222.898C354.98 219.717 352.935 218.353 352.935 218.353C352.935 218.353 350.889 213.581 349.299 211.763C347.708 209.945 343.391 209.491 341.8 208.355C340.21 207.218 339.073 203.583 337.028 204.946C334.983 206.309 335.892 208.128 336.801 208.81C337.71 209.492 341.119 212.9 341.119 212.9L332.483 209.037C332.483 209.037 331.801 212.445 332.937 213.581C334.074 214.718 336.346 216.763 336.346 216.763C336.346 216.763 339.755 221.535 341.8 222.671C343.845 223.807 347.481 224.716 348.163 224.943C350.201 225.624 352.247 227.358 354.066 228.463C357.929 230.81 361.785 233.168 365.653 235.505C369.306 237.713 373.213 239.736 377.231 241.508L380.134 229.506Z" fill="white" stroke="#263238" stroke-miterlimit="10" stroke-linecap="round" stroke-linejoin="round"/>
<path d="M393.611 238.124L387.022 231.533L388.84 237.669" stroke="#263238" stroke-miterlimit="10" stroke-linecap="round" stroke-linejoin="round"/>
<path d="M96.7007 251.924C96.7007 251.924 97.7516 250.585 99.4664 248.354" stroke="#263238" stroke-miterlimit="10" stroke-linecap="round" stroke-linejoin="round"/>
</svg>
